<?xml version="1.0"?>
<svg xmlns="http://www.w3.org/2000/svg" xmlnsXlink="http://www.w3.org/1999/xlink" xmlnssvgjs="http://svgjs.com/svgjs" version="1.1" width="90" height="90" x="0" y="0" viewBox="0 0 512 512" style="enable-background:new 0 0 512 512" xml:space="preserve" class=""><g><path xmlns="http://www.w3.org/2000/svg" d="M472,56h8V264H416V112A56.063,56.063,0,0,1,472,56ZM448,424a16,16,0,0,0,32,0V280H448ZM64,200v64H80V200Zm192-56A112,112,0,1,0,368,256,112.127,112.127,0,0,0,256,144ZM56,424a16,16,0,0,0,32,0V280H56ZM80,144V79.494a8,8,0,0,0-16,0V144a8,8,0,0,0,16,0ZM430.369,280A176.012,176.012,0,0,1,104,344.732V272a8,8,0,0,0-8-8V183.628h0a38.053,38.053,0,0,1-5.263.372H53.261a37.26,37.26,0,0,1-37.2-39.447l6.181-81.059a8,8,0,1,1,15.967,1.017l-6.178,81.02A21.261,21.261,0,0,0,53.261,168H90.739a21.26,21.26,0,0,0,21.223-22.508l-6.175-80.981a8,8,0,0,1,15.967-1.017l5.627,72.379A175.973,175.973,0,0,1,400,154.829V272a8,8,0,0,0,8,8ZM384,256A128,128,0,1,0,256,384,128.146,128.146,0,0,0,384,256Z" fill="#f9f1e4" data-original="#000000" style="" class=""/></g></svg>
