<?xml version="1.0"?>
<svg xmlns="http://www.w3.org/2000/svg" xmlnsXlink="http://www.w3.org/1999/xlink" xmlnssvgjs="http://svgjs.com/svgjs" version="1.1" width="80" height="50" x="0" y="0" viewBox="0 0 512 512" style="enable-background:new 0 0 512 512" xml:space="preserve" class=""><g><path xmlns="http://www.w3.org/2000/svg" d="m0 341.253906c2.789062 33.738282 31.148438 60.332032 65.578125 60.332032h380.84375c34.429687 0 62.789063-26.59375 65.578125-60.332032zm0 0" fill="#f9f1e4" data-original="#000000" style="" class=""/><path xmlns="http://www.w3.org/2000/svg" d="m276.148438 132.3125v-19.609375l47.351562-47.351563c14.964844-14.964843 14.964844-39.1875 0-54.152343-14.929688-14.929688-39.222656-14.933594-54.15625 0l-8.308594 8.304687-8.304687-8.304687c-14.929688-14.929688-39.226563-14.929688-54.15625 0-14.929688 14.929687-14.929688 39.222656 0 54.152343l47.351562 47.355469v19.609375c-95.179687 7.351563-171.375 83.535156-178.726562 178.71875h387.671875c-7.351563-95.183594-83.546875-171.371094-178.722656-178.722656zm0 0" fill="#f9f1e4" data-original="#000000" style="" class=""/></g></svg>
